#!OML:ASF F:\VICON\USERDATA\INSTALL\rory3\rory3.ASF
:FULLY-SPECIFIED
:DEGREES
1629
root 3.63085 15.4228 5.67695 17.7836 -7.40354 5.63291
lowerback 1.55577 -3.47008 2.69935
upperback -4.46964 -4.50075 0.881434
thorax -5.6402 -2.33727 -0.295752
lowerneck -16.0303 0.9866 -3.91172
upperneck 29.3182 2.50273 -0.0215253
head 12.3021 0.636829 1.0341
rclavicle -2.08724e-014 7.95139e-016
rhumerus -48.3042 10.7961 -70.8545
rradius 77.8667
rwrist 9.96176
rhand -29.7749 -38.912
rfingers 7.12502
rthumb -3.1001 -788.869
lclavicle -2.08724e-014 7.95139e-016
lhumerus -45.6429 -11.3062 85.1025
lradius 79.2843
lwrist -1.84547
lhand -33.8669 -46.3438
lfingers 7.12502
lthumb -7.05111 -16.4812
rfemur -49.5529 21.3653 28.8066
rtibia 61.5947
rfoot -22.4188 -25.8265
rtoes 12.754
lfemur -52.7785 12.5974 -2.11308
ltibia 112.232
lfoot -19.2599 -0.0089972
ltoes -3.36075
1630
root 3.65056 15.3037 5.6721 17.6669 -8.12612 5.54743
lowerback 1.45585 -3.33633 2.11628
upperback -4.46458 -4.35299 0.8301
thorax -5.53035 -2.23983 -0.0446286
lowerneck -16.239 1.03037 -3.66939
upperneck 29.5314 2.51788 -0.0568145
head 12.4341 0.658801 0.985679
rclavicle 8.20981e-014 -2.3059e-014
rhumerus -47.4565 10.8019 -71.1708
rradius 77.9597
rwrist 10.0097
rhand -29.3448 -39.5831
rfingers 7.12502
rthumb -2.68473 -789.546
lclavicle 8.20981e-014 -2.3059e-014
lhumerus -45.6203 -11.0297 84.84
lradius 79.606
lwrist -1.45959
lhand -33.6703 -46.4779
lfingers 7.12502
lthumb -6.86131 -16.6091
rfemur -50.4045 22.9133 28.6383
rtibia 63.1805
rfoot -22.7892 -26.8003
rtoes 13.7218
lfemur -53.2347 13.2326 -2.23088
ltibia 111.307
lfoot -19.0944 0.601643
ltoes -5.13146
1631
root 3.66438 15.2151 5.66125 17.4442 -8.16138 5.51651
lowerback 1.53267 -3.43051 1.73233
upperback -4.47723 -4.49424 0.827274
thorax -5.55957 -2.29349 0.179244
lowerneck -16.1027 1.07779 -3.61397
upperneck 29.4761 2.53502 0.0209681
head 12.3815 0.6841 1.00604
rclavicle 2.15681e-014 -1.11319e-014
rhumerus -46.3441 10.7551 -71.3047
rradius 77.8835
rwrist 10.2269
rhand -29.0746 -39.7122
rfingers 7.12502
rthumb -2.42378 -789.678
lclavicle 2.15681e-014 -1.11319e-014
lhumerus -45.4239 -10.8403 84.6066
lradius 79.8246
lwrist -1.10835
lhand -33.7054 -46.3687
lfingers 7.12502
lthumb -6.89517 -16.501
rfemur -50.9922 23.6242 28.6479
rtibia 64.5541
rfoot -23.2469 -27.5771
rtoes 14.7353
lfemur -53.9131 13.0141 -2.31442
ltibia 110.376
lfoot -18.7243 1.01424
ltoes -6.09358
1632
root 3.67442 15.1748 5.67821 16.7128 -8.3888 5.31916
lowerback 1.93678 -3.44377 1.68314
upperback -4.3346 -4.50706 0.792416
thorax -5.6395 -2.29639 0.192469
lowerneck -16.1623 1.04675 -3.66437
upperneck 29.6793 2.47455 0.133207
head 12.4744 0.660395 1.05073
rclavicle -4.26393e-014 2.06736e-014
rhumerus -45.0021 10.3589 -71.1477
rradius 77.7284
rwrist 10.9407
rhand -28.518 -39.9589
rfingers 7.12502
rthumb -1.88624 -789.93
lclavicle -4.26393e-014 2.06736e-014
lhumerus -45.3017 -10.6623 84.4244
lradius 80.2163
lwrist -0.844897
lhand -33.8636 -46.3251
lfingers 7.12502
lthumb -7.04791 -16.4625
rfemur -50.4281 24.1151 29.1312
rtibia 65.4866
rfoot -23.596 -28.2632
rtoes 13.8725
lfemur -53.4908 12.7654 -2.24073
ltibia 109.254
lfoot -18.5628 1.5493
ltoes -6.57696
1633
root 3.69248 15.0998 5.66137 16.6089 -7.91239 5.49498
lowerback 1.90832 -3.64434 1.45738
upperback -4.34541 -4.79103 0.71791
thorax -5.62593 -2.42963 0.25872
lowerneck -16.611 0.880522 -3.79241
upperneck 30.0339 2.23731 0.336411
head 12.7136 0.557345 1.12277
rclavicle -8.94531e-015 -3.97569e-015
rhumerus -44.2856 11.011 -71.1487
rradius 78.7839
rwrist 10.401
rhand -27.8381 -40.6975
rfingers 7.12502
rthumb -1.22955 -790.674
lclavicle -8.94531e-015 -3.97569e-015
lhumerus -44.9078 -10.7181 84.2057
lradius 80.6653
lwrist -0.707888
lhand -33.8528 -46.2045
lfingers 7.12502
lthumb -7.03743 -16.3415
rfemur -51.1786 23.8082 29.0643
rtibia 66.544
rfoot -23.9024 -28.6067
rtoes 14.475
lfemur -54.9057 11.9533 -2.5837
ltibia 108.861
lfoot -17.9411 2.01143
ltoes -6.712
1634
root 3.71245 15.0267 5.63795 16.7047 -7.29305 5.81995
lowerback 1.72244 -3.80454 1.22591
upperback -4.43469 -5.02767 0.56268
thorax -5.61015 -2.54208 0.233289
lowerneck -16.9878 0.71698 -3.94424
upperneck 30.3497 1.97711 0.633674
head 12.9234 0.457061 1.23056
rclavicle -4.22417e-014 1.43125e-014
rhumerus -43.3027 11.24 -70.9523
rradius 79.6126
rwrist 9.82641
rhand -27.1009 -40.7483
rfingers 7.12502
rthumb -0.517539 -790.727
lclavicle -4.22417e-014 1.43125e-014
lhumerus -44.4899 -11.1115 84.0407
lradius 81.2114
lwrist -0.604103
lhand -33.5252 -46.1338
lfingers 7.12502
lthumb -6.7212 -16.2605
rfemur -52.1801 23.184 28.7806
rtibia 67.5146
rfoot -24.2475 -28.7051
rtoes 14.8678
lfemur -56.8773 10.9655 -3.08935
ltibia 108.842
lfoot -17.3863 2.32082
ltoes -7.27913
